# Blender 3.3.1
# www.blender.org
mtllib logsHitbox.mtl
o Cube.001
v -0.311795 0.007347 3.992055
v -0.812077 2.507488 4.704555
v -0.959681 -0.044299 -4.079669
v -0.871354 3.001035 -4.338785
v 0.633124 0.000329 3.930745
v 0.886657 2.339701 4.957048
v 0.999509 -0.008363 -3.669286
v 1.000000 3.084728 -4.325640
v -0.975569 0.860641 4.338442
v -1.511807 1.151495 -3.980372
v 1.374920 1.538183 -4.127647
v 0.920108 0.987142 4.861615
v 1.500000 0.000000 -5.000000
v 1.500000 0.100000 -5.000000
v 1.500000 0.000000 -5.100000
v 1.500000 0.100000 -5.100000
v 1.600000 0.000000 -5.000000
v 1.600000 0.100000 -5.000000
v 1.600000 0.000000 -5.100000
v 1.600000 0.100000 -5.100000
vn -0.9737 0.2238 0.0435
vn -0.0119 -0.1608 -0.9869
vn 0.9892 0.1408 0.0407
vn -0.2104 -0.1398 0.9676
vn 0.0095 -0.9999 0.0037
vn 0.0185 0.9975 0.0675
vn -0.1067 -0.5816 0.8064
vn 0.9649 -0.2596 0.0393
vn 0.0647 -0.1255 -0.9900
vn -0.8535 -0.5182 0.0541
vn -1.0000 -0.0000 -0.0000
vn -0.0000 -0.0000 -1.0000
vn 1.0000 -0.0000 -0.0000
vn -0.0000 -0.0000 1.0000
vn -0.0000 -1.0000 -0.0000
vn -0.0000 1.0000 -0.0000
vt 0.125000 0.750000
vt 0.375000 1.000000
vt 0.375000 0.000000
vt 0.625000 0.000000
vt 0.625000 1.000000
vt 0.875000 0.750000
vt 0.125000 0.500000
vt 0.375000 0.250000
vt 0.625000 0.250000
vt 0.875000 0.500000
vt 0.375000 0.750000
vt 0.625000 0.750000
vt 0.375000 0.500000
vt 0.625000 0.500000
vt 0.500000 1.000000
vt 0.500000 0.000000
vt 0.500000 0.250000
vt 0.500000 0.500000
vt 0.500000 0.750000
vt 0.375000 0.000000
vt 0.375000 1.000000
vt 0.125000 0.750000
vt 0.625000 0.000000
vt 0.625000 1.000000
vt 0.875000 0.750000
vt 0.375000 0.250000
vt 0.125000 0.500000
vt 0.625000 0.250000
vt 0.875000 0.500000
vt 0.375000 0.750000
vt 0.625000 0.750000
vt 0.375000 0.500000
vt 0.625000 0.500000
s 0
f 9/16/1 2/4/1 4/9/1 10/17/1
f 10/17/2 4/9/2 8/14/2 11/18/2
f 11/18/3 8/14/3 6/12/3 12/19/3
f 12/19/4 6/12/4 2/5/4 9/15/4
f 3/7/5 7/13/5 5/11/5 1/1/5
f 8/14/6 4/10/6 2/6/6 6/12/6
f 5/11/7 12/19/7 9/15/7 1/2/7
f 7/13/8 11/18/8 12/19/8 5/11/8
f 3/8/9 10/17/9 11/18/9 7/13/9
f 1/3/10 9/16/10 10/17/10 3/8/10
f 13/20/11 14/23/11 16/28/11 15/26/11
f 15/26/12 16/28/12 20/33/12 19/32/12
f 19/32/13 20/33/13 18/31/13 17/30/13
f 17/30/14 18/31/14 14/24/14 13/21/14
f 15/27/15 19/32/15 17/30/15 13/22/15
f 20/33/16 16/29/16 14/25/16 18/31/16
