# Blender 3.3.1
# www.blender.org
mtllib snagsHitbox.mtl
o Cube.001
v 4.321180 0.019085 0.754704
v 4.452415 2.373247 0.612837
v 4.441945 0.019085 -0.845306
v 4.549902 2.463925 -1.185902
v 6.167271 0.019085 0.561567
v 5.991110 1.939354 0.618508
v 6.044397 0.019085 -0.576368
v 6.102555 2.209178 -0.636123
v 7.600000 0.100000 -2.500000
v 7.600000 0.000000 -2.500000
v 7.600000 0.100000 -2.400000
v 7.600000 0.000000 -2.400000
v 7.500000 0.100000 -2.500000
v 7.500000 0.000000 -2.500000
v 7.500000 0.100000 -2.400000
v 7.500000 0.000000 -2.400000
v -0.561149 0.019085 0.446903
v -0.517539 2.183146 0.667721
v -0.377505 0.019085 -0.933618
v -0.431674 2.463925 -0.981897
v 0.577089 0.019085 0.782638
v 0.509852 1.939354 0.987103
v 1.102385 0.019085 -0.486424
v 1.156250 0.019085 -0.026497
v 0.991201 2.127196 0.025320
v 1.225893 2.260941 -0.744624
v -5.697803 -0.112262 0.446903
v -5.709888 2.183146 0.403826
v -5.474587 0.019085 -0.933618
v -5.488203 2.463925 -0.814073
v -4.519993 0.019085 0.782638
v -4.587229 2.245812 0.819724
v -3.805807 0.019085 -0.898345
v -4.020161 0.019085 0.608723
v -3.980571 2.127196 0.360539
v -4.085330 2.260941 -0.814303
vn -0.9971 0.0434 -0.0629
vn 0.2431 -0.0921 -0.9656
vn 0.9996 0.0287 -0.0015
vn 0.0579 0.0204 0.9981
vn -0.0000 -1.0000 -0.0000
vn 0.1937 0.9727 0.1281
vn -0.0000 1.0000 -0.0000
vn -0.0000 -0.0000 1.0000
vn -1.0000 -0.0000 -0.0000
vn 1.0000 -0.0000 -0.0000
vn -0.0000 -0.0000 -1.0000
vn -0.9961 0.0010 -0.0885
vn 0.8570 0.0167 0.5150
vn 0.1134 0.9732 0.1999
vn -0.2984 -0.1006 0.9491
vn 0.2085 -0.0669 -0.9757
vn 0.9890 0.0164 0.1472
vn -0.9856 -0.0026 -0.1692
vn 0.4998 0.0453 0.8650
vn 0.0746 0.9913 0.1083
vn -0.3103 -0.0042 0.9506
vn 0.0143 0.0443 -0.9989
vn 0.9974 0.0567 0.0436
vn 0.0429 -0.9988 -0.0239
vt 0.375000 0.000000
vt 0.375000 1.000000
vt 0.125000 0.750000
vt 0.625000 0.000000
vt 0.625000 1.000000
vt 0.875000 0.750000
vt 0.375000 0.250000
vt 0.125000 0.500000
vt 0.625000 0.250000
vt 0.875000 0.500000
vt 0.375000 0.750000
vt 0.625000 0.750000
vt 0.375000 0.500000
vt 0.625000 0.500000
vt 0.625000 0.500000
vt 0.375000 0.500000
vt 0.625000 0.750000
vt 0.375000 0.750000
vt 0.875000 0.500000
vt 0.625000 0.250000
vt 0.125000 0.500000
vt 0.375000 0.250000
vt 0.875000 0.750000
vt 0.625000 1.000000
vt 0.625000 0.000000
vt 0.375000 1.000000
vt 0.375000 0.000000
vt 0.125000 0.750000
vt 0.375000 0.000000
vt 0.375000 1.000000
vt 0.125000 0.750000
vt 0.625000 0.000000
vt 0.875000 0.750000
vt 0.625000 1.000000
vt 0.375000 0.250000
vt 0.125000 0.500000
vt 0.875000 0.500000
vt 0.625000 0.250000
vt 0.375000 0.750000
vt 0.625000 0.750000
vt 0.375000 0.434776
vt 0.309776 0.500000
vt 0.375000 0.574491
vt 0.625000 0.575959
vt 0.675798 0.500000
vt 0.625000 0.449202
vt 0.375000 0.000000
vt 0.375000 1.000000
vt 0.125000 0.750000
vt 0.625000 0.000000
vt 0.875000 0.750000
vt 0.625000 1.000000
vt 0.375000 0.250000
vt 0.125000 0.500000
vt 0.875000 0.500000
vt 0.625000 0.250000
vt 0.375000 0.750000
vt 0.625000 0.750000
vt 0.375000 0.434776
vt 0.309776 0.500000
vt 0.375000 0.574491
vt 0.625000 0.575959
vt 0.675798 0.500000
vt 0.625000 0.449202
s 0
usemtl Material
f 1/1/1 2/4/1 4/9/1 3/7/1
f 3/7/2 4/9/2 8/14/2 7/13/2
f 7/13/3 8/14/3 6/12/3 5/11/3
f 5/11/4 6/12/4 2/5/4 1/2/4
f 3/8/5 7/13/5 5/11/5 1/3/5
f 8/14/6 4/10/6 2/6/6 6/12/6
f 9/15/7 13/19/7 15/23/7 11/17/7
f 12/18/8 11/17/8 15/24/8 16/26/8
f 16/27/9 15/25/9 13/20/9 14/22/9
f 14/21/5 10/16/5 12/18/5 16/28/5
f 10/16/10 9/15/10 11/17/10 12/18/10
f 14/22/11 13/20/11 9/15/11 10/16/11
f 17/29/12 18/32/12 20/38/12 19/35/12
f 24/43/13 25/44/13 22/40/13 21/39/13
f 25/44/14 26/45/14 20/37/14 18/33/14 22/40/14
f 21/39/15 22/40/15 18/34/15 17/30/15
f 19/35/16 20/38/16 26/46/16 23/41/16
f 25/44/17 24/43/17 23/41/17 26/46/17
f 19/36/5 23/42/5 24/43/5 21/39/5 17/31/5
f 27/47/18 28/50/18 30/56/18 29/53/18
f 34/61/19 35/62/19 32/58/19 31/57/19
f 35/62/20 36/63/20 30/55/20 28/51/20 32/58/20
f 31/57/21 32/58/21 28/52/21 27/48/21
f 29/53/22 30/56/22 36/64/22 33/59/22
f 35/62/23 34/61/23 33/59/23 36/64/23
f 29/54/24 33/60/24 34/61/24 31/57/24 27/49/24
